OpenSim_Sub04_CSStiffKnee_RCS.mot
version=1
nRows=47
nColumns=11
inDegrees=no
endheader
time	Top_Thigh	Med_Thigh	Bot_Thigh	Top_Shank	2nd_Top_Shank	2nd_Bot_Shank	Bot_Shank	BNOx	BNOy	BNOZ
0	1391.00546052	1330.02958916	1252.00716273	1080.00768282	1218.99989526	1113.05000155	1040.02238705	41.61970635	-76.56502291	-156.23572250
0.01000000	1390.98946880	1329.99285495	1251.98456344	1079.99698376	1219.00003850	1112.98103715	1039.99142783	41.62028251	-76.55788386	-156.17114512
0.02000000	1390.92197132	1329.99259911	1251.88342710	1079.98825142	1219.00013890	1112.92848506	1039.96752870	41.62188457	-76.55099964	-156.11168081
0.03000000	1390.81427536	1330.02575730	1251.71796751	1079.98156304	1219.00020068	1112.89143988	1039.95047769	41.62456422	-76.54436481	-156.05740232
0.04000000	1390.67895178	1330.08863354	1251.50397942	1079.97693225	1219.00022953	1112.86874189	1039.93982642	41.62840187	-76.53796431	-156.00828049
0.05000000	1390.52857147	1330.17753182	1251.25725758	1079.97437265	1219.00023116	1112.85923142	1039.93512645	41.63347793	-76.53178310	-155.96428618
0.06000000	1390.37570529	1330.28875614	1250.99359671	1079.97389788	1219.00021127	1112.86174876	1039.93592939	41.63987282	-76.52580613	-155.92539024
0.07000000	1390.23292412	1330.41861050	1250.72879156	1079.97552154	1219.00017555	1112.87513422	1039.94178681	41.64766694	-76.52001835	-155.89156352
0.08000000	1390.11279883	1330.56339889	1250.47863687	1079.97925726	1219.00012972	1112.89822811	1039.95225030	41.65694072	-76.51440471	-155.86277688
0.09000000	1390.02790028	1330.71942532	1250.25892739	1079.98511865	1219.00007946	1112.92987073	1039.96687145	41.66777455	-76.50895018	-155.83900116
0.10000000	1389.99079936	1330.88299378	1250.08545784	1079.99311934	1219.00003047	1112.96890238	1039.98520185	41.68024885	-76.50363969	-155.82020721
0.11000000	1390.01396070	1331.05040498	1249.97390628	1080.00326719	1218.99998844	1113.01414907	1040.00678528	41.69444400	-76.49845948	-155.80636467
0.12000000	1390.10163036	1331.21770566	1249.93092297	1080.01512493	1218.99995673	1113.06332977	1040.03056210	41.71043760	-76.49349436	-155.79734838
0.13000000	1390.24412324	1331.38051197	1249.94785538	1080.02750072	1218.99993482	1113.11228698	1040.05444983	41.72830259	-76.48899628	-155.79287252
0.14000000	1390.43040486	1331.53439840	1250.01456869	1080.03912966	1218.99992182	1113.15668145	1040.07626688	41.74811143	-76.48523335	-155.79263571
0.15000000	1390.64944068	1331.67493941	1250.12092806	1080.04874685	1218.99991683	1113.19217391	1040.09383170	41.76993658	-76.48247372	-155.79633657
0.16000000	1390.89019620	1331.79770948	1250.25679867	1080.05508735	1218.99991896	1113.21442510	1040.10496271	41.79385053	-76.48098549	-155.80367372
0.17000000	1391.14163692	1331.89828308	1250.41204570	1080.05688628	1218.99992732	1113.21909577	1040.10747833	41.81992574	-76.48103680	-155.81434577
0.18000000	1391.39272830	1331.97223467	1250.57653431	1080.05287870	1218.99994099	1113.20184664	1040.09919701	41.84823468	-76.48289578	-155.82805136
0.19000000	1391.63243585	1332.01513874	1250.74012968	1080.04179972	1218.99995910	1113.15833846	1040.07793717	41.87884981	-76.48683055	-155.84448908
0.20000000	1391.84972505	1332.02256975	1250.89269697	1080.02238441	1218.99998074	1113.08423196	1040.04151723	41.91184362	-76.49310924	-155.86335758
0.21000000	1392.03358128	1331.99011646	1251.02411834	1079.99337125	1219.00000502	1112.97519914	1039.98775919	41.94728792	-76.50199937	-155.88435532
0.22000000	1392.17720900	1331.91639652	1251.12787264	1079.95421389	1219.00003103	1112.82929660	1039.91523900	41.98512013	-76.51363833	-155.90715125
0.23000000	1392.28322589	1331.80678545	1251.20546349	1079.90596169	1219.00005780	1112.64990131	1039.82421483	42.02497770	-76.52787327	-155.93134839
0.24000000	1392.35552335	1331.66757314	1251.25948033	1079.84987993	1219.00008437	1112.44111015	1039.71517247	42.06645750	-76.54451203	-155.95654086
0.25000000	1392.39799273	1331.50504949	1251.29251258	1079.78723387	1219.00010978	1112.20702000	1039.58859770	42.10915640	-76.56336247	-155.98232277
0.26000000	1392.41452543	1331.32550440	1251.30714966	1079.71928879	1219.00013307	1111.95172771	1039.44497630	42.15267126	-76.58423244	-156.00828822
0.27000000	1392.40901281	1331.13522776	1251.30598102	1079.64730995	1219.00015326	1111.67933017	1039.28479405	42.19659896	-76.60692980	-156.03403135
0.28000000	1392.38534625	1330.94050947	1251.29159606	1079.57256263	1219.00016939	1111.39392424	1039.10853675	42.24053637	-76.63126241	-156.05914624
0.29000000	1392.34741714	1330.74763943	1251.26658424	1079.49631210	1219.00018050	1111.09960679	1038.91669018	42.28408037	-76.65703811	-156.08322702
0.30000000	1392.29911684	1330.56290753	1251.23353496	1079.41982362	1219.00018563	1110.80047468	1038.70974011	42.32682781	-76.68406476	-156.10586781
0.31000000	1392.24433673	1330.39260367	1251.19503766	1079.34436247	1219.00018380	1110.50062481	1038.48817233	42.36837557	-76.71215022	-156.12666270
0.32000000	1392.18696820	1330.24301774	1251.15368176	1079.27119393	1219.00017406	1110.20415402	1038.25247263	42.40832051	-76.74110234	-156.14520581
0.33000000	1392.13090261	1330.12043964	1251.11205670	1079.20158325	1219.00015545	1109.91515919	1038.00312679	42.44625952	-76.77072897	-156.16109126
0.34000000	1392.08003134	1330.03115928	1251.07275191	1079.13679571	1219.00012699	1109.63773720	1037.74062059	42.48178946	-76.80083797	-156.17391316
0.35000000	1392.03824578	1329.98146654	1251.03835680	1079.07809659	1219.00008772	1109.37598490	1037.46543982	42.51450720	-76.83123718	-156.18326561
0.36000000	1392.00943728	1329.97765132	1251.01146081	1079.02675115	1219.00003668	1109.13399918	1037.17807027	42.54400961	-76.86173448	-156.18874273
0.37000000	1391.99740401	1330.02584362	1250.99459975	1078.98400651	1218.99997299	1108.91582281	1036.87903775	42.56990194	-76.89213959	-156.18993309
0.38000000	1392.00231955	1330.12595736	1250.98822468	1078.95040421	1218.99989913	1108.72339558	1036.57042504	42.59211491	-76.92233542	-156.18620941
0.39000000	1392.01964910	1330.26983152	1250.99007857	1078.92556922	1218.99982196	1108.55592548	1036.25633738	42.61100208	-76.95229993	-156.17666408
0.40000000	1392.04454316	1330.44876544	1250.99772339	1078.90906524	1218.99974861	1108.41243790	1035.94101519	42.62694526	-76.98201746	-156.16037075
0.41000000	1392.07215225	1330.65405846	1251.00872109	1078.90045598	1218.99968624	1108.29195825	1035.62869889	42.64032626	-77.01147231	-156.13640304
0.42000000	1392.09762689	1330.87700991	1251.02063366	1078.89930514	1218.99964198	1108.19351191	1035.32362890	42.65152690	-77.04064880	-156.10383461
0.43000000	1392.11611760	1331.10891913	1251.03102306	1078.90517644	1218.99962298	1108.11612430	1035.03004564	42.66092898	-77.06953126	-156.06173910
0.44000000	1392.12277489	1331.34108545	1251.03745125	1078.91763359	1218.99963637	1108.05882081	1034.75218953	42.66891433	-77.09810399	-156.00919014
0.45000000	1392.11274928	1331.56480822	1251.03748020	1078.93624028	1218.99968932	1108.02062684	1034.49430098	42.67586474	-77.12635133	-155.94526139
0.46000000	1392.08119129	1331.77138676	1251.02867188	1078.96056023	1218.99978894	1108.00056779	1034.26062042	42.68216204	-77.15425758	-155.86902648
